<?xml version="1.0" encoding="UTF-8" standalone="no"?>
<!-- Created with Inkscape (http://www.inkscape.org/) -->

<svg
   width="21.166677mm"
   height="21.166687mm"
   viewBox="0 0 21.166674 21.166687"
   version="1.1"
   id="svg1"
   inkscape:version="1.4.2 (ebf0e940d0, 2025-05-08)"
   sodipodi:docname="middelen.svg"
   xmlns:inkscape="http://www.inkscape.org/namespaces/inkscape"
   xmlns:sodipodi="http://sodipodi.sourceforge.net/DTD/sodipodi-0.dtd"
   xmlns="http://www.w3.org/2000/svg"
   xmlns:svg="http://www.w3.org/2000/svg">
  <sodipodi:namedview
     id="namedview1"
     pagecolor="#ffffff"
     bordercolor="#000000"
     borderopacity="0.25"
     inkscape:showpageshadow="2"
     inkscape:pageopacity="0.0"
     inkscape:pagecheckerboard="0"
     inkscape:deskcolor="#d1d1d1"
     inkscape:document-units="mm"
     inkscape:zoom="2.8976696"
     inkscape:cx="91.4528"
     inkscape:cy="128.37902"
     inkscape:window-width="3440"
     inkscape:window-height="1403"
     inkscape:window-x="0"
     inkscape:window-y="0"
     inkscape:window-maximized="1"
     inkscape:current-layer="layer1" />
  <defs
     id="defs1">
    <marker
       style="overflow:visible"
       id="marker2779-3-0"
       refX="0"
       refY="0"
       orient="auto"
       inkscape:stockid="EmptyTriangleOutM"
       inkscape:isstock="true">
      <path
         transform="matrix(0.4,0,0,0.4,-1.8,0)"
         style="fill:#ffffff;fill-rule:evenodd;stroke:#ffffff;stroke-width:1pt;stroke-opacity:1"
         d="M 5.77,0 -2.88,5 V -5 Z"
         id="path2777-6-4" />
    </marker>
  </defs>
  <g
     inkscape:label="Laag 1"
     inkscape:groupmode="layer"
     id="layer1"
     transform="translate(-134.31944,-157.25455)">
    <g
       id="g17">
      <g
         aria-label=""
         id="text858"
         style="font-style:normal;font-weight:normal;font-size:37.5px;line-height:1.25;font-family:sans-serif;letter-spacing:0px;word-spacing:0px;fill:#214478;fill-opacity:1;stroke:none;stroke-width:0.9375"
         transform="matrix(0.0696292,0,0,0.0696292,216.2808,156.53713)">
        <path
           d="m -1025.1164,162.29953 c 22.2478,0 40.68166,-18.116 40.68166,-40.68159 0,-22.24773 -18.43386,-40.68159 -40.68166,-40.68159 -22.5656,0 -40.6816,18.43386 -40.6816,40.68159 0,22.56559 18.116,40.68159 40.6816,40.68159 z m 28.28647,10.17039 h -5.40307 c -6.9921,3.4961 -14.6199,5.08522 -22.8834,5.08522 -8.2634,0 -16.209,-1.58912 -23.2012,-5.08522 h -5.403 c -23.5191,0 -42.5885,19.38735 -42.5885,42.90639 v 13.03082 c 0,8.58128 6.6743,15.25557 15.2555,15.25557 h 111.87443 c 8.26346,0 15.25562,-6.67429 15.25562,-15.25557 v -13.03082 c 0,-23.51904 -19.38735,-42.90639 -42.90638,-42.90639 z"
           style="font-style:normal;font-variant:normal;font-weight:900;font-stretch:normal;font-family:'Font Awesome 5 Free';-inkscape-font-specification:'Font Awesome 5 Free Heavy';fill:#214478;fill-opacity:1;stroke-width:4.06816"
           id="path860" />
      </g>
      <g
         id="g4125"
         transform="matrix(0.01376713,0.02384536,-0.02384536,0.01376713,138.3195,257.97608)"
         style="fill:#214478;fill-opacity:1;stroke:#ffffff">
        <g
           id="path1260"
           style="opacity:1;fill:#214478;fill-opacity:1">
          <path
             style="baseline-shift:baseline;display:inline;overflow:visible;vector-effect:none;fill:#214478;fill-opacity:1;stroke:none;enable-background:accumulate;stop-color:#000000;stop-opacity:1"
             d="m -2349.9121,-1843.8984 c 0,177.4977 -127.3336,329.2481 -302.1348,360.0703 l 3.2559,18.4668 c 183.6395,-32.3806 317.6289,-192.0646 317.6289,-378.5371 z"
             id="path5" />
          <g
             id="g2"
             style="fill:#214478;fill-opacity:1">
            <g
               id="path2"
               style="opacity:1;fill:#214478;fill-opacity:1">
              <path
                 style="baseline-shift:baseline;display:inline;overflow:visible;vector-effect:none;fill:#214478;fill-opacity:1;fill-rule:evenodd;stroke:none;enable-background:accumulate;stop-color:#000000;stop-opacity:1"
                 d="m -2659.7993,-1472.9408 57.3776,-48.1957 13.0236,73.8606 z"
                 id="path3" />
              <path
                 style="baseline-shift:baseline;display:inline;overflow:visible;vector-effect:none;fill:#214478;fill-opacity:1;fill-rule:evenodd;stroke:none;enable-background:accumulate;stop-color:#000000;stop-opacity:1"
                 d="m -2599.002,-1530.5391 -70.6367,59.334 86.6699,31.5938 z m -6.8398,18.8047 10.0156,56.793 -54.1328,-19.7344 z"
                 id="path4" />
            </g>
          </g>
        </g>
        <g
           id="path1862"
           style="opacity:1;fill:#214478;fill-opacity:1"
           transform="rotate(90)">
          <path
             style="baseline-shift:baseline;display:inline;overflow:visible;vector-effect:none;fill:#214478;fill-opacity:1;stroke:none;enable-background:accumulate;stop-color:#000000;stop-opacity:1"
             d="m -1478.2734,2715.5391 c 0,177.4977 -127.3336,329.2481 -302.1348,360.0703 l 3.2559,18.4648 c 183.6395,-32.3806 317.6289,-192.0626 317.6289,-378.5351 z"
             id="path9" />
          <g
             id="g6"
             style="fill:#214478;fill-opacity:1">
            <g
               id="path6"
               style="opacity:1;fill:#214478;fill-opacity:1">
              <path
                 style="baseline-shift:baseline;display:inline;overflow:visible;vector-effect:none;fill:#214478;fill-opacity:1;fill-rule:evenodd;stroke:none;enable-background:accumulate;stop-color:#000000;stop-opacity:1"
                 d="m -1788.1599,3086.496 57.3776,-48.1957 13.0236,73.8605 z"
                 id="path7" />
              <path
                 style="baseline-shift:baseline;display:inline;overflow:visible;vector-effect:none;fill:#214478;fill-opacity:1;fill-rule:evenodd;stroke:none;enable-background:accumulate;stop-color:#000000;stop-opacity:1"
                 d="m -1727.3633,3028.8984 -70.6367,59.3321 86.6699,31.5957 z m -6.8398,18.8047 10.0156,56.791 -54.1328,-19.7324 z"
                 id="path8" />
            </g>
          </g>
        </g>
        <g
           id="path1938"
           style="opacity:1;fill:#214478;fill-opacity:1"
           transform="scale(-1)">
          <path
             style="baseline-shift:baseline;display:inline;overflow:visible;vector-effect:none;fill:#214478;fill-opacity:1;stroke:none;enable-background:accumulate;stop-color:#000000;stop-opacity:1"
             d="m 3081.1641,1843.9004 c 0,177.4977 -127.3336,329.2481 -302.1348,360.0703 l 3.2559,18.4648 c 183.6395,-32.3806 317.6289,-192.0626 317.6289,-378.5351 z"
             id="path13" />
          <g
             id="g10"
             style="fill:#214478;fill-opacity:1">
            <g
               id="path10"
               style="opacity:1;fill:#214478;fill-opacity:1">
              <path
                 style="baseline-shift:baseline;display:inline;overflow:visible;vector-effect:none;fill:#214478;fill-opacity:1;fill-rule:evenodd;stroke:none;enable-background:accumulate;stop-color:#000000;stop-opacity:1"
                 d="m 2771.2768,2214.8564 57.3776,-48.1957 13.0236,73.8606 z"
                 id="path11" />
              <path
                 style="baseline-shift:baseline;display:inline;overflow:visible;vector-effect:none;fill:#214478;fill-opacity:1;fill-rule:evenodd;stroke:none;enable-background:accumulate;stop-color:#000000;stop-opacity:1"
                 d="m 2832.0742,2157.2578 -70.6367,59.334 86.6699,31.5957 z m -6.8379,18.8067 10.0137,56.791 -54.1328,-19.7344 z"
                 id="path12" />
            </g>
          </g>
        </g>
        <g
           id="path2022"
           style="opacity:1;fill:#214478;fill-opacity:1"
           transform="rotate(-90)">
          <path
             style="baseline-shift:baseline;display:inline;overflow:visible;vector-effect:none;fill:#214478;fill-opacity:1;stroke:none;enable-background:accumulate;stop-color:#000000;stop-opacity:1"
             d="m 2209.5254,-2715.5371 c 0,177.4977 -127.3336,329.2481 -302.1348,360.0703 l 3.2559,18.4648 c 183.6395,-32.3806 317.6289,-192.0626 317.6289,-378.5351 z"
             id="path17" />
          <g
             id="g14"
             style="fill:#214478;fill-opacity:1">
            <g
               id="path14"
               style="opacity:1;fill:#214478;fill-opacity:1">
              <path
                 style="baseline-shift:baseline;display:inline;overflow:visible;vector-effect:none;fill:#214478;fill-opacity:1;fill-rule:evenodd;stroke:none;enable-background:accumulate;stop-color:#000000;stop-opacity:1"
                 d="m 1899.6373,-2344.5802 57.3776,-48.1957 13.0236,73.8606 z"
                 id="path15" />
              <path
                 style="baseline-shift:baseline;display:inline;overflow:visible;vector-effect:none;fill:#214478;fill-opacity:1;fill-rule:evenodd;stroke:none;enable-background:accumulate;stop-color:#000000;stop-opacity:1"
                 d="m 1960.4336,-2402.1777 -70.6348,59.332 86.668,31.5957 z m -6.8379,18.8027 10.0156,56.793 -54.1347,-19.7325 z"
                 id="path16" />
            </g>
          </g>
        </g>
      </g>
    </g>
  </g>
</svg>
