<?xml version="1.0" encoding="UTF-8" standalone="no"?>
<!-- Created with Inkscape (http://www.inkscape.org/) -->

<svg
   width="16.933786mm"
   height="16.052027mm"
   viewBox="0 0 16.933784 16.052027"
   version="1.1"
   id="svg1"
   inkscape:version="1.4.2 (ebf0e940d0, 2025-05-08)"
   sodipodi:docname="middelen.svg"
   xmlns:inkscape="http://www.inkscape.org/namespaces/inkscape"
   xmlns:sodipodi="http://sodipodi.sourceforge.net/DTD/sodipodi-0.dtd"
   xmlns="http://www.w3.org/2000/svg"
   xmlns:svg="http://www.w3.org/2000/svg">
  <sodipodi:namedview
     id="namedview1"
     pagecolor="#ffffff"
     bordercolor="#000000"
     borderopacity="0.25"
     inkscape:showpageshadow="2"
     inkscape:pageopacity="0.0"
     inkscape:pagecheckerboard="0"
     inkscape:deskcolor="#d1d1d1"
     inkscape:document-units="mm"
     inkscape:zoom="1.4488348"
     inkscape:cx="-118.71609"
     inkscape:cy="69.020982"
     inkscape:window-width="3440"
     inkscape:window-height="1403"
     inkscape:window-x="0"
     inkscape:window-y="0"
     inkscape:window-maximized="1"
     inkscape:current-layer="g17" />
  <defs
     id="defs1">
    <marker
       style="overflow:visible"
       id="marker2779-3-0"
       refX="0"
       refY="0"
       orient="auto"
       inkscape:stockid="EmptyTriangleOutM"
       inkscape:isstock="true">
      <path
         transform="matrix(0.4,0,0,0.4,-1.8,0)"
         style="fill:#ffffff;fill-rule:evenodd;stroke:#ffffff;stroke-width:1pt;stroke-opacity:1"
         d="M 5.77,0 -2.88,5 V -5 Z"
         id="path2777-6-4" />
    </marker>
  </defs>
  <g
     inkscape:label="Laag 1"
     inkscape:groupmode="layer"
     id="layer1"
     transform="translate(-168.71519,-181.06701)">
    <g
       id="g17">
      <path
         style="fill:#214478;fill-opacity:1;stroke-width:0.282222"
         d="m 180.97879,197.10107 c -0.17724,-0.0396 -0.30007,-0.10745 -0.42793,-0.23639 -0.0742,-0.0748 -0.10633,-0.11856 -0.14477,-0.19713 -0.10089,-0.20618 -0.0909,0.0963 -0.098,-2.97981 l -0.006,-2.73633 -0.0481,-0.0142 c -0.15196,-0.0449 -0.33094,-0.1924 -0.40644,-0.33505 -0.0824,-0.15558 -0.0858,-0.18929 -0.0858,-0.83509 v -0.57815 l -0.098,-0.0885 c -0.21765,-0.19665 -0.412,-0.34774 -0.97688,-0.75942 -0.65143,-0.47477 -0.93095,-0.71809 -1.13477,-0.98781 -0.182,-0.24085 -0.26077,-0.44628 -0.26077,-0.68007 0,-0.58758 0.55317,-1.08836 1.78154,-1.61282 0.69534,-0.29688 1.21001,-0.44694 1.60339,-0.46749 0.21592,-0.0113 0.34175,0.0164 0.43661,0.0963 l 0.036,0.0303 h 1.17787 1.17787 l 0.0378,-0.0283 c 0.11763,-0.0882 0.26334,-0.12065 0.49494,-0.11037 0.44919,0.0199 0.87088,0.201 0.97271,0.41762 0.0365,0.0776 0.28177,0.80855 0.37546,1.11882 0.28678,0.94973 0.33256,1.46562 0.17076,1.92411 -0.10347,0.29318 -0.27542,0.54946 -0.71617,1.06736 l -0.13752,0.1616 v 0.53753 c 0,0.60056 -0.004,0.64052 -0.0858,0.79449 -0.0755,0.14265 -0.25448,0.29018 -0.40645,0.33505 l -0.0481,0.0142 -0.006,2.73039 c -0.007,3.06788 0.002,2.78245 -0.0975,2.98575 -0.0395,0.0806 -0.0701,0.12142 -0.15103,0.20224 -0.11079,0.11059 -0.20561,0.16816 -0.35089,0.21304 -0.39133,0.12088 -0.83518,-0.0882 -0.99521,-0.46875 -0.0717,-0.17055 -0.0678,5.6e-4 -0.0678,-2.9509 v -2.69657 h -0.26129 -0.26129 v 2.69657 c 0,2.95396 0.004,2.78501 -0.0686,2.95092 -0.15717,0.35982 -0.55439,0.56935 -0.92317,0.48697 z m 2.25237,-6.7896 c 0.0841,-0.0252 0.13145,-0.0806 0.26002,-0.30391 0.0668,-0.11596 0.13139,-0.22749 0.14362,-0.24786 l 0.0222,-0.037 -0.0499,-0.033 c -0.0274,-0.0181 -0.0743,-0.0559 -0.10415,-0.0838 l -0.0543,-0.0508 -0.0821,0.14456 c -0.10883,0.19175 -0.12811,0.21557 -0.2048,0.25309 -0.082,0.0401 -0.2028,0.0432 -0.29465,0.007 -0.0327,-0.0127 -0.46771,-0.25911 -0.96677,-0.54758 -0.49906,-0.28846 -0.90968,-0.52448 -0.91248,-0.52448 -0.003,0 0.0187,0.0281 0.0478,0.0624 0.0709,0.0835 0.10342,0.15144 0.11311,0.2359 l 0.008,0.0702 0.89156,0.5148 c 0.49036,0.28313 0.91526,0.52316 0.94422,0.53339 0.0635,0.0224 0.17544,0.0256 0.23843,0.007 z m -0.21796,-0.61389 c 0.0408,-0.052 1.62956,-2.81905 1.62909,-2.83726 -2.2e-4,-0.0115 -0.0285,-0.1034 -0.0627,-0.20416 l -0.0622,-0.1832 -0.81911,-0.47298 c -0.45051,-0.26014 -0.82788,-0.47299 -0.83858,-0.473 -0.0107,-1e-5 -0.0301,0.009 -0.0431,0.0207 -0.0312,0.0274 -1.76052,3.02757 -1.76052,3.05431 0,0.0113 0.012,0.0318 0.0267,0.0454 0.0213,0.0197 1.66456,0.97527 1.82576,1.06167 0.0445,0.0238 0.08,0.0199 0.10473,-0.0116 z m 0.1267,-2.45518 c -0.34594,-0.19967 -0.63347,-0.36743 -0.63896,-0.37282 -0.005,-0.005 0.015,-0.0531 0.0455,-0.106 0.0517,-0.0896 0.0573,-0.0953 0.0812,-0.0827 0.0272,0.0143 1.25847,0.72394 1.26439,0.7287 0.005,0.004 -0.10845,0.19582 -0.1163,0.19582 -0.004,0 -0.28995,-0.16336 -0.63589,-0.36303 z m 0.32805,-0.576 c -0.34896,-0.20215 -0.63679,-0.36985 -0.63962,-0.37269 -0.006,-0.006 0.0897,-0.18171 0.1047,-0.19102 0.006,-0.004 0.2997,0.15985 0.65254,0.36352 l 0.64153,0.37033 -0.038,0.0667 c -0.0209,0.0367 -0.0463,0.0814 -0.0564,0.0993 -0.0101,0.0179 -0.0211,0.0323 -0.0243,0.032 -0.003,-2.2e-4 -0.29145,-0.16601 -0.64041,-0.36816 z m -2.68525,1.97788 c -0.008,-0.024 -0.0122,-0.0764 -0.01,-0.1166 0.005,-0.0722 0.0154,-0.0914 0.88195,-1.5933 0.48242,-0.83614 0.89003,-1.5377 0.90581,-1.55902 0.0158,-0.0213 0.0564,-0.0531 0.0903,-0.0707 0.0879,-0.0455 0.22219,-0.046 0.31892,-0.001 0.037,0.0172 0.3649,0.2031 0.72865,0.41319 0.36376,0.21009 0.66298,0.38029 0.66494,0.37821 0.007,-0.007 -0.13172,-0.3306 -0.14891,-0.34741 -0.0277,-0.0272 -1.29328,-0.75591 -1.3654,-0.78628 -0.0487,-0.0205 -0.088,-0.0275 -0.1544,-0.0275 -0.10212,-3e-5 -0.164,0.0226 -0.21972,0.0803 -0.028,0.029 -0.72588,1.22925 -1.95618,3.36439 l -0.0321,0.0557 0.11524,0.0954 c 0.0634,0.0525 0.13089,0.11183 0.15001,0.13191 0.0191,0.0201 0.037,0.0342 0.0398,0.0315 0.003,-0.003 -0.001,-0.0246 -0.009,-0.0486 z m 3.74956,-0.72809 c 0.16067,-0.18408 0.20373,-0.28011 0.2139,-0.47704 0.004,-0.0827 0.003,-0.12071 -0.005,-0.11283 -0.009,0.01 -0.14819,0.24789 -0.51145,0.87889 -0.0167,0.0291 0.23454,-0.21067 0.30293,-0.28902 z m -4.77601,-2.23206 c -0.01,-0.01 -0.55717,0.26755 -0.71391,0.36157 -0.22747,0.13646 -0.34136,0.22126 -0.47572,0.35422 -0.14767,0.14613 -0.18905,0.2204 -0.18857,0.33849 5.6e-4,0.10103 0.0469,0.18942 0.16836,0.32017 0.15368,0.16542 0.36771,0.3245 0.88244,0.65586 l 0.32661,0.21026 0.003,-1.11765 c 0.002,-0.61471 5.7e-4,-1.12002 -0.002,-1.12292 z m -11.04075,8.5813 -2.3e-4,-2.56839 0.1017,-3.12958 c 0.0559,-1.72127 0.10458,-3.15764 0.10808,-3.19193 l 0.006,-0.0624 h 0.82959 0.82959 l 0.007,0.0742 c 0.004,0.0408 0.0494,1.40504 0.10187,3.03159 0.0524,1.62655 0.0986,3.01481 0.10259,3.08504 l 0.007,0.12768 h 0.82408 0.82408 l 0.003,-0.99691 0.003,-0.99691 1.08674,0.997 1.08674,0.99699 0.003,-0.99872 c 0.002,-0.56438 0.008,-0.99701 0.0134,-0.99478 0.006,0.002 0.49873,0.45214 1.09558,0.99994 l 1.08519,0.99601 0.006,-1.00142 0.006,-1.00143 1.09493,1.00308 1.09493,1.00309 5.7e-4,2.59808 5.6e-4,2.59809 h -5.16054 -5.16053 l -2.3e-4,-2.5684 z m 1.417,-9.164 c -0.007,-0.005 -0.18724,-0.051 -0.39974,-0.10313 l -0.38637,-0.0949 -0.0438,-0.095 c -0.17048,-0.36995 -0.25579,-0.79087 -0.21972,-1.08403 0.064,-0.52013 0.41425,-0.82656 1.05556,-0.92351 0.0635,-0.01 0.27846,-0.0255 0.47769,-0.0353 0.77959,-0.0384 1.24203,-0.0906 2.10885,-0.2381 0.37754,-0.0643 0.47273,-0.0748 0.48561,-0.054 0.0209,0.0338 -0.0401,0.0766 -0.39128,0.27491 -0.33891,0.19137 -0.40344,0.23578 -0.63542,0.4372 -0.23475,0.20383 -0.38373,0.27665 -0.83905,0.4101 -0.5433,0.15924 -0.87653,0.29633 -1.1245,0.46261 -0.273,0.18306 -0.39794,0.38676 -0.36452,0.59428 0.0214,0.13293 0.1123,0.27723 0.24707,0.39227 0.0341,0.0291 0.0578,0.0557 0.0525,0.0589 -0.005,0.003 -0.0156,0.002 -0.0229,-0.002 z m 11.92534,-0.5368 c -0.39464,-0.0416 -0.75083,-0.20684 -1.03544,-0.48043 -0.16436,-0.158 -0.25895,-0.28654 -0.35855,-0.48725 -0.13382,-0.26966 -0.18243,-0.47853 -0.18243,-0.78388 0,-0.21604 0.0195,-0.34309 0.0823,-0.53638 0.19704,-0.60616 0.69082,-1.04579 1.32732,-1.18178 0.16215,-0.0346 0.49465,-0.0375 0.65504,-0.006 0.73255,0.1456 1.27646,0.69206 1.41432,1.42092 0.0284,0.15022 0.0295,0.45095 0.002,0.59979 -0.0457,0.24922 -0.14226,0.48911 -0.27921,0.69361 -0.0862,0.12874 -0.27491,0.32555 -0.40608,0.42354 -0.34213,0.2556 -0.79838,0.38185 -1.21955,0.33749 z"
         id="path16270"
         inkscape:connector-curvature="0" />
    </g>
  </g>
</svg>
