<?xml version="1.0" encoding="UTF-8" standalone="no"?>
<!-- Created with Inkscape (http://www.inkscape.org/) -->

<svg
   width="26.358486mm"
   height="16.933334mm"
   viewBox="0 0 26.358486 16.933334"
   version="1.1"
   id="svg1"
   inkscape:version="1.4.2 (ebf0e940d0, 2025-05-08)"
   sodipodi:docname="motivatie.svg"
   xmlns:inkscape="http://www.inkscape.org/namespaces/inkscape"
   xmlns:sodipodi="http://sodipodi.sourceforge.net/DTD/sodipodi-0.dtd"
   xmlns="http://www.w3.org/2000/svg"
   xmlns:svg="http://www.w3.org/2000/svg">
  <sodipodi:namedview
     id="namedview1"
     pagecolor="#ffffff"
     bordercolor="#000000"
     borderopacity="0.25"
     inkscape:showpageshadow="2"
     inkscape:pageopacity="0.0"
     inkscape:pagecheckerboard="0"
     inkscape:deskcolor="#d1d1d1"
     inkscape:document-units="mm"
     inkscape:zoom="2.8976696"
     inkscape:cx="-0.69020981"
     inkscape:cy="72.47203"
     inkscape:window-width="3440"
     inkscape:window-height="1403"
     inkscape:window-x="0"
     inkscape:window-y="0"
     inkscape:window-maximized="1"
     inkscape:current-layer="layer1" />
  <defs
     id="defs1" />
  <g
     inkscape:label="Laag 1"
     inkscape:groupmode="layer"
     id="layer1"
     transform="translate(-158.75,-171.97916)">
    <g
       id="g2"
       transform="matrix(0.24505867,0,0,0.24505867,149.44511,166.62037)"
       style="fill:#214478;fill-opacity:1">
      <path
         style="fill:#214478;stroke-width:0.2117;fill-opacity:1"
         d="m 79.162502,90.825496 c -0.49232,-0.168074 -0.77597,-0.354497 -1.16313,-0.764445 -0.48429,-0.512781 -0.69234,-1.057658 -0.69234,-1.813196 0,-1.261141 0.81375,-2.305397 2.04678,-2.62656 0.2732,-0.07116 0.78031,-0.08577 2.97808,-0.08577 h 2.64882 v -0.500056 c 0,-0.912042 -0.026,-0.788933 1.409704,-6.68503 0.09584,-0.393622 0.158129,-0.73181 0.138409,-0.75153 -0.01972,-0.01973 -1.504063,0.159313 -3.298533,0.397852 -4.13329,0.549439 -8.71814,1.158012 -14.3811,1.90889 -2.44914,0.324741 -5.88136,0.780653 -7.62717,1.013137 l -3.1742,0.422699 -0.41059,0.402651 c -0.68061,0.667461 -1.36054,0.949304 -2.28699,0.947987 -1.41362,-0.0019 -2.62521,-0.881533 -3.0613,-2.222278 -0.19116,-0.587689 -0.2017,-1.380792 -0.0257,-1.935848 0.22669,-0.715073 0.75669,-1.395596 1.45327,-1.866039 l 0.23346,-0.157666 v -1.169315 c 0,-0.643125 -0.0208,-1.182205 -0.0463,-1.197958 -0.0255,-0.01575 -0.38467,-0.0562 -0.79818,-0.08989 -3.50085,-0.285221 -6.51826,-1.086904 -9.18238,-2.439625 -3.51308,-1.783782 -5.70727,-4.444422 -5.91717,-7.175028 l -0.0359,-0.467649 h 17.37205 17.37205 v 0.30073 c 0,0.417565 -0.13738,1.159968 -0.30712,1.659698 -0.88145,2.595108 -3.5495,4.958113 -7.26644,6.435671 -2.19644,0.873126 -4.61954,1.431169 -7.20454,1.659214 -0.51333,0.04528 -0.97744,0.08246 -1.03135,0.08262 -0.0904,2.11e-4 -0.098,0.09615 -0.098,1.227227 v 1.226946 l 0.26059,0.152716 c 0.40221,0.235713 0.94427,0.826844 1.16766,1.273382 0.10786,0.215595 0.19611,0.42641 0.19611,0.468481 0,0.08997 0.11165,0.09828 0.29142,0.02167 0.0708,-0.03015 0.88483,-0.32197 1.80903,-0.648474 0.9242,-0.326504 2.80201,-0.99273 4.17291,-1.480497 1.3709,-0.487768 3.6394,-1.29427 5.0411,-1.792224 1.40171,-0.497956 3.27952,-1.166112 4.17291,-1.48479 0.8934,-0.318678 3.33833,-1.188467 5.43319,-1.932865 3.99053,-1.418017 8.046348,-2.860954 10.010513,-3.561437 1.04667,-0.373275 1.233596,-0.422343 1.904415,-0.499893 0.409106,-0.0473 1.046297,-0.1232 1.415977,-0.168675 0.574746,-0.0707 5.858261,-0.69244 8.121773,-0.955731 0.40049,-0.04659 2.11446,-0.248186 3.80883,-0.448003 1.69437,-0.199819 3.40834,-0.401432 3.80883,-0.448029 0.40049,-0.0466 2.11446,-0.248161 3.80883,-0.447914 1.69437,-0.199754 3.40834,-0.401448 3.80883,-0.448213 0.40049,-0.04676 2.11446,-0.2483 3.80883,-0.447863 4.75706,-0.560287 4.96012,-0.583923 5.01637,-0.583923 0.029,0 0.0531,-0.144932 0.0536,-0.32207 0.003,-1.024548 0.56461,-2.041594 1.46653,-2.654079 l 0.32503,-0.22072 v -1.219918 -1.219915 l -0.89024,-0.06918 c -7.25376,-0.563693 -13.20271,-3.818233 -14.67364,-8.027552 -0.20534,-0.587619 -0.34372,-1.284981 -0.34372,-1.732133 v -0.329885 h 17.36379 17.36378 v 0.244716 c 0,0.387576 -0.15845,1.194467 -0.34234,1.743349 -1.06338,3.173993 -4.73246,5.905993 -9.73986,7.252325 -1.73947,0.467689 -3.31414,0.72871 -5.34916,0.886691 l -0.50411,0.03914 -0.0151,1.212313 -0.0151,1.212311 0.26011,0.152437 c 0.81021,0.474815 1.38827,1.359696 1.53647,2.352013 0.0903,0.604458 -0.0233,1.279113 -0.3145,1.868341 -0.2581,0.522217 -0.85262,1.137719 -1.35032,1.397976 -0.42196,0.220644 -1.10589,0.402484 -1.51382,0.402484 -0.3928,0 -1.03183,-0.14508 -1.40169,-0.318229 l -0.29335,-0.137332 -1.44303,0.47465 c -0.79366,0.261055 -3.14439,1.033422 -5.22385,1.716368 -2.07945,0.682945 -4.65041,1.527947 -5.71324,1.87778 -1.06284,0.349834 -2.90284,0.955071 -4.0889,1.344971 -1.18605,0.389902 -3.02606,0.994771 -4.08889,1.344155 -2.09388,0.688323 -5.60384,1.843606 -8.082048,2.660164 -1.294127,0.426408 -1.552149,0.52864 -1.530064,0.60624 0.01461,0.05134 0.283339,1.151971 0.597171,2.445852 0.313832,1.293883 0.681368,2.806213 0.816746,3.360733 0.609316,2.4958 0.595194,2.421921 0.623646,3.262711 l 0.02701,0.798174 h 2.678769 c 2.73302,0 3.01835,0.01829 3.49484,0.224084 0.59267,0.255968 1.2037,0.895278 1.43127,1.497496 0.54361,1.438593 -0.14609,2.970901 -1.59769,3.549616 l -0.33607,0.133982 -12.238667,0.01289 -12.238671,0.01289 z M 92.36079,73.990909 c 0.596728,-0.286843 1.04397,-0.948663 1.118003,-1.654408 0.07369,-0.702426 -0.368935,-1.489932 -1.045888,-1.86083 -0.317162,-0.173772 -0.420226,-0.200776 -0.840183,-0.220145 -0.39055,-0.01802 -0.537474,9.1e-5 -0.798038,0.09833 -0.963583,0.363298 -1.497921,1.494367 -1.170615,2.477919 0.146355,0.439798 0.534955,0.901651 0.947619,1.126251 0.504726,0.274706 1.257251,0.288536 1.789102,0.03288 z"
         id="path1" />
      <text
         xml:space="preserve"
         style="font-weight:bold;font-size:26.178px;font-family:Comfortaa;-inkscape-font-specification:'Comfortaa Bold';fill:#214478;stroke-width:0.272687;fill-opacity:1"
         x="42.247696"
         y="60.835567"
         id="text1"><tspan
           sodipodi:role="line"
           id="tspan1"
           x="42.247696"
           y="60.835567"
           style="font-size:26.178px;fill:#214478;stroke-width:0.272687;fill-opacity:1">€</tspan></text>
      <path
         style="fill:#214478;stroke-width:0.810242;fill-opacity:1"
         d="m 115.76823,46.786471 c -1.39647,-0.438738 -2.09667,-1.977622 -1.47549,-3.242782 0.0701,-0.142829 0.46744,-0.846232 0.88293,-1.563101 0.41547,-0.716878 1.41375,-2.445609 2.2184,-3.841623 0.80466,-1.396022 1.60813,-2.785181 1.78552,-3.08702 0.17738,-0.301848 0.91821,-1.582961 1.64629,-2.846922 0.72808,-1.263961 1.52965,-2.65312 1.78127,-3.08702 0.25163,-0.433901 1.16524,-2.022007 2.03026,-3.529129 1.67323,-2.915257 1.92772,-3.270167 2.55138,-3.558143 0.48781,-0.225248 1.49387,-0.21597 1.9712,0.01815 0.61038,0.299408 0.87738,0.663952 2.29451,3.132791 0.73376,1.27831 1.58485,2.756377 1.89131,3.284606 0.64663,1.114519 1.80609,3.122185 3.07039,5.316529 0.48912,0.848931 1.05231,1.821343 1.25154,2.160915 0.19922,0.339572 0.78767,1.358289 1.30766,2.263815 0.52,0.905526 1.35826,2.356425 1.86281,3.224218 1.33294,2.292587 1.41365,2.468385 1.41024,3.071902 -0.006,0.938527 -0.44067,1.664317 -1.26717,2.112437 l -0.43361,0.2351 -12.24518,0.01304 c -9.99756,0.01061 -12.29825,-0.0032 -12.53426,-0.07778 z m 24.47074,-1.890367 c 0.23771,-0.237717 0.21061,-0.442035 -0.13652,-1.029007 -0.14504,-0.245244 -1.11852,-1.92767 -2.16327,-3.738722 -1.04475,-1.811052 -2.24705,-3.89479 -2.67175,-4.63053 -0.42471,-0.73574 -1.0654,-1.847067 -1.42377,-2.469616 -0.35837,-0.62255 -0.83015,-1.44061 -1.0484,-1.817915 -2.38865,-4.129396 -3.29702,-5.701435 -3.75587,-6.499961 -0.40958,-0.712761 -0.58265,-0.953508 -0.70809,-0.984994 -0.39904,-0.100154 -0.44954,-0.04059 -1.4741,1.739426 -0.53759,0.933958 -1.13955,1.975937 -1.3377,2.315509 -0.19815,0.339572 -0.75211,1.296548 -1.23103,2.126617 -0.47891,0.83006 -1.0499,1.817906 -1.26886,2.195211 -0.21895,0.377306 -1.3765,2.383869 -2.57233,4.459027 -1.19582,2.075167 -2.3987,4.158905 -2.67305,4.630531 -1.24539,2.140942 -1.81,3.141849 -1.82252,3.230838 -0.0297,0.211489 0.009,0.342659 0.13989,0.473586 0.13616,0.136153 0.22868,0.137198 12.07369,0.137198 11.84501,0 11.93752,-8.1e-4 12.07368,-0.137198 z M 127.54925,42.68374 c -0.16617,-0.08489 -0.3956,-0.271853 -0.50987,-0.415468 -0.17637,-0.221666 -0.21106,-0.330498 -0.22964,-0.720305 -0.0182,-0.379946 0.006,-0.506052 0.13576,-0.730732 0.44814,-0.77195 1.42683,-0.942068 2.08668,-0.362713 0.74026,0.64996 0.59821,1.772347 -0.28011,2.21324 -0.42405,0.212858 -0.8075,0.217955 -1.20282,0.01596 z m 0.37593,-3.919568 c -0.37534,-0.163637 -0.30454,0.333544 -1.07105,-7.520946 -0.11938,-1.223262 0.0568,-1.793559 0.65047,-2.105972 0.28979,-0.152487 1.0341,-0.151151 1.32599,0.0024 0.31953,0.168076 0.55927,0.521925 0.6459,0.953322 0.0593,0.295244 0.0518,0.625304 -0.0341,1.502463 -0.0605,0.618255 -0.23424,2.399312 -0.38596,3.957909 -0.28991,2.978083 -0.30831,3.068684 -0.65522,3.226754 -0.21138,0.09631 -0.21919,0.09605 -0.47602,-0.01588 z"
         id="path1-1" />
    </g>
  </g>
</svg>
