<?xml version="1.0" encoding="UTF-8" standalone="no"?>
<!-- Created with Inkscape (http://www.inkscape.org/) -->

<svg
   width="203.2mm"
   height="203.2mm"
   viewBox="0 0 719.99998 719.99999"
   id="svg4818"
   version="1.1"
   inkscape:version="1.4.2 (ebf0e940d0, 2025-05-08)"
   sodipodi:docname="organisatie.svg"
   inkscape:export-filename="/home/bart/Afbeeldingen/PNG/Icons:Organization.png"
   inkscape:export-xdpi="176.09"
   inkscape:export-ydpi="176.09"
   xmlns:inkscape="http://www.inkscape.org/namespaces/inkscape"
   xmlns:sodipodi="http://sodipodi.sourceforge.net/DTD/sodipodi-0.dtd"
   xmlns="http://www.w3.org/2000/svg"
   xmlns:svg="http://www.w3.org/2000/svg"
   xmlns:rdf="http://www.w3.org/1999/02/22-rdf-syntax-ns#"
   xmlns:cc="http://creativecommons.org/ns#"
   xmlns:dc="http://purl.org/dc/elements/1.1/">
  <defs
     id="defs4820" />
  <sodipodi:namedview
     id="base"
     pagecolor="#ffffff"
     bordercolor="#666666"
     borderopacity="1.0"
     inkscape:pageopacity="0.0"
     inkscape:pageshadow="2"
     inkscape:zoom="0.98994949"
     inkscape:cx="219.2031"
     inkscape:cy="439.41636"
     inkscape:document-units="px"
     inkscape:current-layer="g7347"
     showgrid="false"
     fit-margin-top="10"
     fit-margin-left="10"
     fit-margin-right="10"
     fit-margin-bottom="10"
     inkscape:window-width="3440"
     inkscape:window-height="1403"
     inkscape:window-x="0"
     inkscape:window-y="0"
     inkscape:window-maximized="1"
     inkscape:showpageshadow="2"
     inkscape:pagecheckerboard="0"
     inkscape:deskcolor="#d1d1d1"
     showguides="true">
    <sodipodi:guide
       position="16.036418,858.3127"
       orientation="0,-1"
       id="guide1"
       inkscape:locked="false" />
  </sodipodi:namedview>
  <metadata
     id="metadata4823">
    <rdf:RDF>
      <cc:Work
         rdf:about="">
        <dc:format>image/svg+xml</dc:format>
        <dc:type
           rdf:resource="http://purl.org/dc/dcmitype/StillImage" />
      </cc:Work>
    </rdf:RDF>
  </metadata>
  <g
     inkscape:label="Laag 1"
     inkscape:groupmode="layer"
     id="layer1"
     transform="translate(-18.218963,80.061457)">
    <g
       id="g6719"
       transform="translate(-13.946667,-5.811096)">
      <g
         id="g7354">
        <g
           id="g7347">
          <path
             id="use7853-7"
             style="fill:#214478;fill-opacity:1;stroke:none;stroke-width:37.0616;stroke-miterlimit:4;stroke-dasharray:none;stroke-dashoffset:0;stroke-opacity:1"
             inkscape:transform-center-x="-17.320864"
             inkscape:transform-center-y="-29.982053"
             d="m 390.99742,-74.250361 c -13.68809,0 -24.70825,5.509733 -24.70825,12.354126 V -9.8961129 C 303.11826,-4.2734367 245.59859,21.253224 200.0587,60.354132 L 162.98716,23.282598 c -4.83972,-4.839717 -16.5271,-0.942994 -26.20605,8.735962 -9.67894,9.678941 -13.57568,21.366338 -8.73596,26.206055 l 37.3114,37.311402 C 127.03239,141.43734 102.31933,199.08098 97.470196,262.21143 h -52.95044 c -6.844393,0 -12.354126,11.02015 -12.354126,24.70826 0,13.68809 5.509733,24.70642 12.354126,24.70642 h 53.248901 c 5.595383,62.86018 30.897583,120.12564 69.673463,165.55847 l -37.74353,37.74353 c -4.83972,4.83972 -0.94299,16.52709 8.73596,26.20605 9.67895,9.67894 21.36634,13.57569 26.20606,8.73597 l 37.88086,-37.88086 c 45.7093,38.39435 103.15289,63.2528 166.10595,68.3551 v 53.05115 c 0,6.84439 11.02015,12.35412 24.70826,12.35412 13.68809,0 24.70642,-5.50973 24.70642,-12.35412 v -53.14087 c 63.03881,-5.34332 120.50593,-30.50154 166.13159,-69.20838 l 37.17041,37.17041 c 4.83972,4.83972 16.5271,0.94482 26.20606,-8.73413 9.67894,-9.67895 13.57568,-21.36816 8.73596,-26.20788 l -37.2052,-37.2052 c 38.7187,-45.81832 63.80034,-103.51746 68.92822,-166.78162 h 51.80237 c 6.84439,0 12.35412,-11.01831 12.35412,-24.70642 0,-13.68809 -5.50973,-24.70825 -12.35412,-24.70825 h -51.89209 c -5.36933,-63.34996 -30.75153,-121.072 -69.78333,-166.805425 l 36.49659,-36.496582 c 4.83971,-4.839717 0.94481,-16.527099 -8.73414,-26.206055 C 636.2196,20.686177 624.53037,16.78944 619.69066,21.629156 L 583.05858,58.263067 C 537.04753,19.614624 479.14581,-5.3193167 415.70384,-10.192744 v -51.703491 c 0,-6.844393 -11.01831,-12.354126 -24.70642,-12.354126 z m 15.68848,100.6073 c 60.13017,3.162576 114.7659,26.731526 157.12646,63.927613 l -92.6239,79.848638 -35.49866,44.1925 A 83.640625,83.640625 0 0 0 409.61375,203.9491 l 6.09009,-55.82885 z m -31.39344,0.214233 c 6.1e-4,-4e-5 10e-4,4.1e-5 0.002,0 l -9.00512,121.549078 6.14685,56.34887 a 83.640625,83.640625 0 0 0 -25.77393,11.10169 L 311.49136,171.78663 219.3948,92.393927 c 41.84565,-37.65895 96.06361,-61.851746 155.89783,-65.822755 z m 210.7782,85.772098 c 37.60745,42.05461 61.65779,96.49974 65.35401,156.5387 l -121.62781,-9.00879 -56.35071,6.14685 A 83.640625,83.640625 0 0 0 462.34447,240.2461 l 43.78601,-35.1709 z m -388.75122,2.47925 79.22974,91.90612 44.1925,35.49866 a 83.640625,83.640625 0 0 0 -10.37659,26.07422 l -55.82885,-6.09009 -120.51087,8.92639 c 3.16361,-59.75463 26.48003,-114.07821 63.29407,-156.3153 z m 454.17115,185.45105 c -3.43878,59.92799 -27.15287,114.33828 -64.40369,156.49109 l -79.30481,-91.99402 -44.19068,-35.49866 a 83.640625,83.640625 0 0 0 10.37476,-26.07422 l 55.83069,6.09009 z m -517.24915,2.44262 120.2948,8.90992 56.34887,-6.14685 a 83.640625,83.640625 0 0 0 11.10169,25.77392 l -43.78418,35.1709 -78.78113,91.38611 c -37.27556,-41.72648 -61.21236,-95.63456 -65.18005,-155.094 z m 303.42773,53.21228 35.1709,43.78418 92.01966,79.32862 c -41.93464,37.22406 -96.06938,61.02027 -155.73304,64.71496 l 8.91541,-120.37536 -6.14685,-56.35071 a 83.640625,83.640625 0 0 0 25.77392,-11.10169 z m -89.02588,1.24695 a 83.640625,83.640625 0 0 0 26.07422,10.37476 l -6.09009,55.83069 8.9209,120.43945 c -59.55296,-3.43801 -113.6516,-26.8977 -155.68176,-63.76648 l 91.27808,-78.68774 z" />
        </g>
      </g>
    </g>
  </g>
</svg>
